{"title":"Unhallowed.Ground.2015.AR-SUB.HDRip.XviD.AC3-N33B","uid":12156552,"size":1151554493,"categoryP":"video","categoryS":"movies","magnet":"?xt=urn:btih:27f153ba4a9c2bc7f4bd55d95be67182e4962294&amp;dn=Unhallowed.Ground.2015.AR-SUB.HDRip.XviD.AC3-N33B&amp;tr=udp%3A%2F%2Ftracker.openbittorrent.com%3A80&amp;tr=udp%3A%2F%2Fopen.demonii.com%3A1337&amp;tr=udp%3A%2F%2Ftracker.coppersurfer.tk%3A6969&amp;tr=udp%3A%2F%2Fexodus.desync.com%3A6969","seeders":1,"leechers":0,"uploader":"TvTeam","files":4,"time":1437794735,"description":"------------------------------------------------------------------------\n\n &lt;a href=&quot; https://www.torrenting.com&quot; rel=&quot;nofollow&quot; target=&quot;_NEW&quot;&gt; https://www.torrenting.com&lt;/a&gt;\n\nSign up is OPEN - for time being. Come and have fun\n\n.......................................................................................................................[img]http://s11.postimg.org/wzw2bnwk3/NTE_V1_SX214_AL.jpg[/img]\n\nUnhallowed.Ground.2015.AR-SUB.HDRip.XviD.AC3-N33B\n\nSource was webrip-olman &lt;a href=&quot;\nhttp://www.imdb.com/title/tt4198034/&quot; rel=&quot;nofollow&quot; target=&quot;_NEW&quot;&gt;\nhttp://www.imdb.com/title/tt4198034/&lt;/a&gt;\n\nGeneral\nComplete name                            : Unhallowed.Ground.2015.AR-SUB.HDRip.XviD.AC3-N33B.avi\nFormat                                   : AVI\nFormat/Info                              : Audio Video Interleave\nFile size                                : 1.04 GiB\nDuration                                 : 1h 33mn\nOverall bit rate                         : 1 595 Kbps\n\nVideo\nID                                       : 0\nFormat                                   : MPEG-4 Visual\nFormat profile                           : Advanced Simple@L5\nFormat settings, BVOP                    : 2\nFormat settings, QPel                    : No\nFormat settings, GMC                     : No warppoints\nFormat settings, Matrix                  : Default (H.263)\nMuxing mode                              : Packed bitstream\nCodec ID                                 : XVID\nCodec ID/Hint                            : XviD\nDuration                                 : 1h 33mn\nBit rate                                 : 1 331 Kbps\nWidth                                    : 720 pixels\nHeight                                   : 304 pixels\nDisplay aspect ratio                     : 2.35:1\nFrame rate                               : 25.000 fps\nColor space                              : YUV\nChroma subsampling                       : 4:2:0\nBit depth                                : 8 bits\nScan type                                : Progressive\nCompression mode                         : Lossy\nBits/(Pixel*Frame)                       : 0.243\nStream size                              : 886 MiB (83%)\nWriting library                          : XviD 64\n\nAudio\nID                                       : 1\nFormat                                   : AC-3\nFormat/Info                              : Audio Coding 3\nMode extension                           : CM (complete main)\nFormat settings, Endianness              : Big\nCodec ID                                 : 2000\nDuration                                 : 1h 33mn\nBit rate mode                            : Constant\nBit rate                                 : 256 Kbps\nChannel(s)                               : 6 channels\nChannel positions                        : Front: L C R, Side: L R, LFE\nSampling rate                            : 48.0 KHz\nCompression mode                         : Lossy\nStream size                              : 170 MiB (16%)\nAlignment                                : Aligned on interleaves\nInterleave, duration                     : 64 ms (1.60 video frames)\nInterleave, preload duration             : 192 ms\nTitle                                    : track_1_english\n\n[img]http://s29.postimg.org/l75vqrh47/vlcsnap_2015_07_25_00h41m35s673.jpg[/img]\n[img]http://s29.postimg.org/ql99c1w87/vlcsnap_2015_07_25_00h41m52s341.jpg[/img]\n[img]http://s29.postimg.org/iib30qbmv/vlcsnap_2015_07_25_00h41m57s088.jpg[/img]\n[img]http://s29.postimg.org/4xfpnv6g7/vlcsnap_2015_07_25_00h42m07s271.jpg[/img]\n[img]http://s29.postimg.org/9tjcfk6lj/vlcsnap_2015_07_25_00h42m40s836.jpg[/img]\n[img]http://s29.postimg.org/z4sn9t4kn/vlcsnap_2015_07_25_00h43m07s457.jpg[/img]","torrent":{"xt":"urn:btih:27f153ba4a9c2bc7f4bd55d95be67182e4962294","amp;dn":"Unhallowed.Ground.2015.AR-SUB.HDRip.XviD.AC3-N33B","amp;tr":["udp%3A%2F%2Ftracker.openbittorrent.com%3A80","udp%3A%2F%2Fopen.demonii.com%3A1337","udp%3A%2F%2Ftracker.coppersurfer.tk%3A6969","udp%3A%2F%2Fexodus.desync.com%3A6969"],"infoHash":"27f153ba4a9c2bc7f4bd55d95be67182e4962294","infoHashBuffer":{"type":"Buffer","data":[39,241,83,186,74,156,43,199,244,189,85,217,91,230,113,130,228,150,34,148]},"announce":[],"urlList":[]}}